<?xml version="1.0" standalone="no"?>
<!DOCTYPE svg PUBLIC "-//W3C//DTD SVG 1.1//EN" "http://www.w3.org/Graphics/SVG/1.1/DTD/svg11.dtd" >
<svg xmlns="http://www.w3.org/2000/svg">
<metadata>Generated by IcoMoon</metadata>
<defs>
<font id="icomoon" horiz-adv-x="1024">
<font-face units-per-em="1024" ascent="NaN" descent="NaN" />
<missing-glyph horiz-adv-x="1024" />
<glyph unicode="&#x20;" d="" />
<glyph unicode="&#xe900;" glyph-name="arrow" d="M935.88-245.217l-423.831-423.933-423.831 423.984c-20.207 20.207-52.894 20.207-73.101 0-20.156-20.207-20.156-52.945 0-73.152l460.358-460.511c20.156-20.207 52.894-20.207 73.050 0l460.358 460.507c20.156 20.207 20.156 52.996 0 73.203-20.105 20.109-52.848 20.109-73.003-0.098z" />
<glyph unicode="&#xe901;" glyph-name="back" d="M245.060-548.549l460.488-460.335c20.206-20.155 52.943-20.155 73.2 0 20.206 20.155 20.206 52.892 0 73.047l-423.963 423.81 423.912 423.81c20.206 20.155 20.206 52.892 0 73.098-20.206 20.155-52.994 20.155-73.2 0l-460.488-460.331c-19.896-19.947-19.896-53.198 0.051-73.098z" />
<glyph unicode="&#xe902;" glyph-name="briefcase" d="M646.369-649.326h-268.706v82.734l-377.663 116.107v-528.248h1024v528.248l-377.631-116.107zM767.48-249.176v203.91h-510.928v-203.91h-256.552v-134.629l377.631-117.634v18.587h268.738v-18.587l377.631 117.634v134.629h-256.52zM654.85-249.176h-285.701v91.378h285.701v-91.378z" />
<glyph unicode="&#xe903;" glyph-name="cancel" d="M577.164-514.327l432.873 432.873c18.617 18.617 18.617 46.547 0 65.164s-46.547 18.617-65.164 0l-432.873-432.873-432.873 432.873c-18.617 18.617-46.547 18.617-65.164 0s-18.617-46.547 0-65.164l432.868-432.873-432.868-432.868c-18.617-18.617-18.617-46.547 0-65.164 9.308-9.308 27.925-9.308 37.234-9.308s27.925 0 27.925 9.308l432.873 432.873 432.873-432.873c9.308-9.308 27.925-9.308 37.234-9.308s27.925 0 27.925 9.308c18.617 18.617 18.617 46.547 0 65.164l-432.862 432.868z" />
<glyph unicode="&#xe904;" glyph-name="cap" d="M577.723-709.888c-18.225-11.178-41.566-17.335-65.723-17.335s-47.498 6.155-65.723 17.335l-297.552 182.491c0 0-26.857 16.462-26.857-20.831 0-42.349 0-169.396 0-169.396 0-1.694 0-10.197 0-12.833 0-95.996 174.665-199.485 390.125-199.485s390.125 103.486 390.125 199.485c0 2.636 0 11.139 0 12.833 0 0 0 134.752 0 179.67 0 29.934-19.093 15.307-19.093 15.307l-305.301-187.242zM1006.852-382.237c22.863 14.021 22.863 36.967 0 50.991l-453.284 226.67c-22.863 14.021-60.277 14.021-83.14 0l-453.281-226.67c-22.863-14.021-22.863-36.967 0-50.991l453.281-278.002c22.863-14.021 60.277-14.021 83.14 0zM988.106-794.301c0 76.757 0 307.031 0 307.031s0.213 14.542-8.416 9.74c-6.922-3.852-23.89-13.31-29.868-18.51-6.902-5.998-5.346-19.463-5.346-19.463s0-209.099 0-278.798c0-3.958-3.401-5.847-5.023-6.802-15.669-9.212-26.205-26.215-26.205-45.709 0-29.295 23.746-53.044 53.044-53.044 29.295 0 53.042 23.749 53.042 53.044 0 19.568-10.613 36.626-26.382 45.814-1.568 0.914-4.846 2.741-4.846 6.696z" />
<glyph unicode="&#xe905;" glyph-name="check" d="M905-201l-553-553-233 233-46-46 256-256 23-22 23 22 576 576z" />
<glyph unicode="&#xe906;" glyph-name="comp" d="M909.668-142.819h-795.199v-524.374h795.199v524.374zM829.040-586.566h-633.967v363.165h633.967v-363.165zM621.433-846.725h-621.433v-34.457h1024v34.457zM909.508-691.532h-795.039l-108.316-144.71h1011.717l-108.362 144.71zM795.199-718.104h43.732v-21.832h-43.732v21.832zM865.936-752.948v-21.832h-43.299v21.832h43.299zM811.766-752.948v-21.832h-43.709v21.832h43.709zM735.4-718.104h43.709v-21.832h-43.709v21.832zM751.991-752.948v-21.832h-43.709v21.832h43.709zM674.28-718.104h43.709v-21.832h-43.709v21.832zM690.871-752.948v-21.832h-43.709v21.832h43.709zM611.702-718.104h43.709v-21.832h-43.709v21.832zM550.582-718.104h43.709v-21.832h-43.709v21.832zM567.149-752.948v-21.832h-43.709v21.832h43.709zM490.783-718.104h43.686v-21.832h-43.686v21.832zM507.351-752.948v-21.832h-43.709v21.832h43.709zM429.663-718.104h43.709v-21.832h-43.709v21.832zM446.254-752.948v-21.832h-43.709v21.832h43.709zM367.222-718.104h43.709v-21.832h-43.709v21.832zM383.812-752.948v-21.832h-43.709v21.832h43.709zM306.124-718.104h43.709v-21.832h-43.709v21.832zM322.692-752.948v-21.832h-43.709v21.832h43.709zM246.326-718.104h43.709v-21.832h-43.709v21.832zM262.916-752.948v-21.832h-43.709v21.832h43.709zM185.206-718.104h43.709v-21.832h-43.709v21.832zM158.064-752.948h43.732v-21.832h-43.732v21.832zM166.565-807.778h-43.709v21.855h43.709v-21.855zM222.42-807.778h-43.709v21.855h43.709v-21.855zM283.54-807.778h-43.709v21.855h43.709v-21.855zM343.339-807.778h-43.732v21.855h43.709l0.023-21.855zM404.436-807.778h-43.709v21.855h43.709v-21.855zM583.968-807.778h-160.799v21.855h160.799v-21.855zM584.537-752.948h43.709v-21.832h-43.709v21.832zM648.893-807.778h-43.709v21.855h43.709v-21.855zM711.495-807.778h-43.709v21.855h43.709v-21.855zM772.592-807.778h-43.709v21.855h43.709v-21.855zM832.413-807.778h-43.709v21.855h43.709v-21.855zM887.608-807.778h-43.709v21.855h43.709v-21.855z" />
<glyph unicode="&#xe907;" glyph-name="contact" d="M750.946-490.328c-44.944-102.921-143.174-188.937-238.424-188.937-116.252 0-200.704 85.048-245.723 187.895-261.809-135.615-228.817-478.822-228.817-478.822 0-46.992 37.013-53.807 80.505-53.807h787.437c43.567 0 80.728 6.851 80.728 53.807 0 0 26.103 344.213-235.706 479.865zM512.521-623.486c131.109 0 235.371 187.671 235.371 342.723s-106.31 280.762-237.456 280.762-237.419-125.71-237.419-280.799c0-155.052 108.358-342.686 239.504-342.686z" />
<glyph unicode="&#xe908;" glyph-name="eye" d="M1006.411-489.757c-2.071 2.618-51.687 64.86-136.745 127.352-113.671 83.511-237.351 127.652-357.668 127.652-120.32 0-244-44.142-357.668-127.652-85.060-62.49-134.676-124.734-136.745-127.352l-17.586-22.242 17.586-22.245c2.069-2.618 51.685-64.862 136.745-127.354 113.671-83.508 237.348-127.65 357.668-127.65 120.317 0 243.997 44.142 357.668 127.65 85.057 62.492 134.673 124.736 136.745 127.354l17.589 22.245-17.589 22.242zM825.563-604.981c-70.287-51.335-181.74-112.532-313.564-112.532s-243.28 61.197-313.564 112.532c-48.233 35.229-84.38 70.858-104.989 92.982 20.617 22.13 56.76 57.756 104.986 92.982 70.287 51.338 181.74 112.534 313.564 112.534 131.822 0 243.282-61.197 313.562-112.534 48.233-35.229 84.38-70.858 104.989-92.98-20.613-22.132-56.76-57.76-104.984-92.984zM511.999-360.306c-36.8 0-70.536-13.112-96.804-34.908 20.787-6.086 35.977-25.284 35.977-48.042 0-27.649-22.415-50.064-50.064-50.064-14.531 0-27.609 6.196-36.755 16.082-2.618-11.168-4.051-22.796-4.051-34.762 0-83.78 67.917-151.695 151.697-151.695 83.777 0 151.692 67.915 151.692 151.695s-67.911 151.695-151.692 151.695z" />
<glyph unicode="&#xe909;" glyph-name="folder-shared" horiz-adv-x="1396" d="M282.713-578.783c-13.357 0-22.261 8.904-22.261 22.261v489.739c0 66.783 57.878 66.783 102.4 66.783h231.513c4.452 0 6.678 0 11.13-2.226l191.443-109.078h353.948c2.226 0 40.070 2.226 66.783-22.261 8.904-8.904 22.261-26.713 22.261-53.426v-57.878c0-13.357-8.904-22.261-22.261-22.261s-22.261 8.904-22.261 22.261v57.878c0 13.357-6.678 20.035-6.678 20.035-11.13 11.13-31.165 11.13-37.843 11.13h-360.626c-4.452 0-6.678 0-11.13 2.226l-191.443 109.078h-224.835c-57.878 0-57.878-6.678-57.878-22.261v-489.739c0-13.357-11.13-22.261-22.261-22.261zM1206.539-734.609h-389.565c-13.357 0-22.261 8.904-22.261 22.261s8.904 22.261 22.261 22.261h373.983l151.374 422.957h-850.365l-129.113-300.522c-4.452-11.13-17.809-15.583-28.939-11.13s-15.583 17.809-11.13 28.939l133.565 313.878c4.452 8.904 11.13 13.357 20.035 13.357h897.113c6.678 0 13.357-4.452 17.809-8.904s4.452-13.357 2.226-20.035l-166.957-467.478c-2.226-8.904-11.13-15.583-20.035-15.583zM82.365-932.73h-37.843c-24.487 0-44.522 20.035-44.522 44.522v244.87c0 24.487 20.035 44.522 44.522 44.522h37.843c24.487 0 44.522-20.035 44.522-44.522v-244.87c0-24.487-20.035-44.522-44.522-44.522zM82.365-888.209v0zM44.522-643.339v-244.87h37.843v244.87h-37.843zM505.322-1024c-53.426 0-133.565 40.070-169.183 66.783-26.713 17.809-158.052 51.2-235.965 66.783-11.13 2.226-17.809 11.13-17.809 22.261v200.348c0 8.904 4.452 15.583 11.13 20.035 57.878 31.165 209.252 33.391 256 33.391 53.426 0 102.4-26.713 140.243-48.974 24.487-13.357 48.974-26.713 62.33-26.713 11.13 0 26.713 0 44.522 0 93.496 0 149.148-13.357 173.635-44.522 11.13-13.357 15.583-31.165 11.13-48.974-6.678-24.487-24.487-55.652-80.139-55.652-26.713 0-57.878 6.678-84.591 13.357-20.035 4.452-37.843 8.904-53.426 8.904s-33.391 0-53.426-2.226c24.487-8.904 46.748-15.583 64.557-22.261 8.904-4.452 17.809-6.678 22.261-8.904 2.226 0 8.904-2.226 31.165-2.226 44.522 0 113.53 8.904 140.243 20.035 8.904 2.226 24.487 15.583 37.843 26.713 28.939 22.261 60.104 48.974 91.27 48.974 13.357 0 35.617-4.452 51.2-31.165 8.904-13.357 11.13-28.939 6.678-46.748-17.809-69.009-162.504-146.922-180.313-155.826-2.226-2.226-4.452-2.226-6.678-2.226 0 0-211.478-28.939-253.774-35.617-2.226 4.452-4.452 4.452-8.904 4.452zM126.887-850.365c57.878-13.357 200.348-44.522 235.965-73.461 37.843-28.939 113.53-62.33 149.148-57.878 40.070 4.452 220.383 31.165 249.322 35.617 55.652 28.939 144.696 89.043 153.6 126.887 2.226 6.678 0 8.904 0 11.13-6.678 8.904-11.13 8.904-13.357 8.904-15.583 0-44.522-22.261-64.557-40.070-20.035-15.583-35.617-28.939-51.2-35.617-33.391-11.13-104.626-22.261-155.826-22.261-20.035 0-35.617 2.226-46.748 4.452-6.678 2.226-13.357 4.452-24.487 8.904-40.070 15.583-106.852 40.070-142.47 44.522-26.713 2.226-28.939 17.809-28.939 26.713 2.226 37.843 133.565 40.070 160.278 40.070 6.678 0 11.13 0 17.809 0 17.809 0 37.843-6.678 60.104-11.13 26.713-6.678 53.426-11.13 75.687-11.13 28.939 0 33.391 11.13 35.617 20.035 2.226 6.678 0 8.904-2.226 11.13-4.452 6.678-28.939 26.713-138.017 26.713-17.809 0-31.165 0-40.070 0 0 0-2.226 0-2.226 0-26.713 0-53.426 15.583-84.591 33.391-35.617 20.035-75.687 42.296-117.983 42.296-97.948 0-182.539-8.904-222.609-24.487v-164.73z" />
<glyph unicode="&#xe90a;" glyph-name="loupe" d="M724.992-582.144l166.912-166.912c18.213-18.213 29.479-43.375 29.479-71.168 0-55.586-45.061-100.647-100.647-100.647-27.793 0-52.955 11.265-71.168 29.479v0l-167.424 166.912c-43.831-23.024-95.767-36.534-150.858-36.534-182.104 0-329.728 147.624-329.728 329.728s147.624 329.728 329.728 329.728c182.104 0 329.728-147.624 329.728-329.728 0-55.091-13.511-107.026-37.4-152.674l0.865 1.816zM253.952-254.464c-49.255-45.933-79.961-111.206-79.961-183.651 0-138.557 112.323-250.88 250.88-250.88 72.572 0 137.947 30.814 183.755 80.072l0.142 0.154c39.937 44.254 64.371 103.171 64.371 167.795 0 138.557-112.323 250.88-250.88 250.88-64.624 0-123.541-24.434-168.016-64.567l0.221 0.197z" />
<glyph unicode="&#xe90b;" glyph-name="mark" d="M998.802-451.204l-425.948 425.95c-33.595 33.595-88.081 33.595-121.676 0s-33.595-88.081 0-121.676l365.071-365.069-365.071-365.067c-33.595-33.595-33.595-88.081 0-121.676s88.081-33.595 121.676 0l425.948 425.948c33.595 33.511 33.595 87.996 0 121.591zM486.648-425.411l-338.167 356.414c-33.98 35.769-89.018 35.769-122.998 0s-33.98-93.793 0-129.605l276.69-291.611-276.69-291.611c-33.98-35.77-33.98-93.835 0-129.605s89.018-35.77 122.998 0l338.167 356.414c33.98 35.769 33.98 93.793 0 129.605z" />
<glyph unicode="&#xe90c;" glyph-name="menu" d="M1024-128c0 25.6-17.067 42.667-42.667 42.667h-938.667c-25.6 0-42.667-17.067-42.667-42.667v-85.333c0-25.6 17.067-42.667 42.667-42.667h938.667c25.6 0 42.667 17.067 42.667 42.667v85.333zM1024-469.333c0 25.6-17.067 42.667-42.667 42.667h-938.667c-25.6 0-42.667-17.067-42.667-42.667v-85.333c0-25.6 17.067-42.667 42.667-42.667h938.667c25.6 0 42.667 17.067 42.667 42.667v85.333zM1024-810.667c0 25.6-17.067 42.667-42.667 42.667h-938.667c-25.6 0-42.667-17.067-42.667-42.667v-85.333c0-25.6 17.067-42.667 42.667-42.667h938.667c25.6 0 42.667 17.067 42.667 42.667v85.333z" />
<glyph unicode="&#xe90d;" glyph-name="next" d="M778.935-475.451l-460.488 460.335c-20.206 20.155-52.943 20.155-73.2 0-20.206-20.155-20.206-52.892 0-73.047l423.963-423.81-423.912-423.81c-20.206-20.155-20.206-52.892 0-73.098 20.206-20.155 52.994-20.155 73.2 0l460.488 460.335c19.9 19.947 19.9 53.198-0.051 73.093z" />
<glyph unicode="&#xe90e;" glyph-name="prev" d="M394.644-512l388.191 386.067c29 28.812 29 75.52 0 104.328-28.996 28.808-76.014 28.808-105.015 0l-436.913-434.528c-15.454-15.352-22.409-35.771-21.392-55.868-1.017-20.101 5.938-40.517 21.392-55.872l436.913-434.523c29-28.812 76.014-28.812 105.015 0 29 28.808 29 75.516 0 104.32l-388.191 386.076z" />
<glyph unicode="&#xe90f;" glyph-name="radio" d="M512 0c-281.6 0-512-230.4-512-512s230.4-512 512-512 512 230.4 512 512-230.4 512-512 512z" />
<glyph unicode="&#xe910;" glyph-name="search-file" horiz-adv-x="1022" d="M754.612-1012.64h-488.469c-4.868 0-8.114 1.623-11.36 4.868l-249.914 245.046c-3.246 3.246-4.868 8.114-4.868 11.36v735.138c0 9.737 6.491 16.228 16.228 16.228h738.384c9.737 0 16.228-6.491 16.228-16.228v-394.345c0-9.737-6.491-16.228-16.228-16.228s-16.228 6.491-16.228 16.228v378.117h-705.927v-710.796l240.177-235.309h465.75v105.483c0 9.737 6.491 16.228 16.228 16.228s16.228-6.491 16.228-16.228v-121.712c0-9.737-8.114-17.851-16.228-17.851zM266.143-1014.263c-8.114 0-16.228 8.114-16.228 16.228l-3.246 225.572-230.441 4.868c-9.737 0-16.228 4.868-16.228 14.605 0 8.114 8.114 14.605 16.228 14.605 0 0 0 0 0 0l245.046-1.623c8.114 0 16.228-6.491 16.228-14.605l4.868-241.8c0-9.737-8.114-17.851-16.228-17.851 0 0 0 0 0 0zM923.385-1024c-19.474 0-37.325 6.491-50.307 21.097l-168.773 167.151c-6.491 6.491-6.491 16.228 0 22.719s16.228 6.491 22.719 0l167.151-168.773c8.114-8.114 19.474-11.36 34.079-9.737s29.211 8.114 40.571 21.097c11.36 11.36 19.474 25.965 21.097 40.571 1.623 12.983-1.623 25.965-9.737 34.079l-167.151 168.773c-6.491 6.491-6.491 16.228 0 22.719s16.228 6.491 22.719 0l167.151-168.773c14.605-14.605 22.719-35.702 19.474-60.044-1.623-22.719-12.983-43.816-30.834-60.044-16.228-16.228-38.948-27.588-60.044-29.211-3.246-1.623-6.491-1.623-8.114-1.623zM634.523-283.994h-486.846c-12.983 0-24.342 11.36-24.342 24.342s11.36 24.342 24.342 24.342h486.846c12.983 0 24.342-11.36 24.342-24.342s-9.737-24.342-24.342-24.342zM342.415-576.101h-194.739c-12.983 0-24.342 11.36-24.342 24.342s11.36 24.342 24.342 24.342h194.739c12.983 0 24.342-11.36 24.342-24.342s-9.737-24.342-24.342-24.342zM481.978-382.986c-3.246 1.623-4.868 1.623-8.114 1.623h-324.564c-12.983 0-24.342-11.36-24.342-24.342s11.36-24.342 24.342-24.342h272.634l60.044 47.062zM683.208-446.276h-272.634l-30.834-45.439c3.246-1.623 6.491-3.246 11.36-3.246h292.108c12.983 0 24.342 11.36 24.342 24.342s-9.737 24.342-24.342 24.342zM683.208-624.786h-324.564c-3.246 0-6.491 0-9.737-1.623l16.228-47.062h318.073c12.983 0 24.342 11.36 24.342 24.342s-9.737 24.342-24.342 24.342zM595.575-860.095c-144.431 0-261.274 116.843-261.274 261.274s116.843 261.274 261.274 261.274 261.274-116.843 261.274-261.274-118.466-261.274-261.274-261.274zM595.575-371.626c-126.58 0-228.818-102.238-228.818-228.818s102.238-227.195 228.818-227.195 228.818 102.238 228.818 228.818-103.861 227.195-228.818 227.195z" />
<glyph unicode="&#xe911;" glyph-name="tel" horiz-adv-x="878" d="M780.19-186.758l-163.352-222.354-64.853 48.762c-12.19 9.265-21.943 13.653-40.472 6.339-19.017-7.314-64.853-26.331-130.682-116.053s-65.341-144.823-63.39-158.476c2.438-13.653 11.215-21.455 22.918-30.72l59.977-44.861-163.352-222.354-87.771 65.341c-19.992 15.604-68.267 74.606-45.836 168.716s94.598 219.429 164.815 315.002 177.493 204.8 234.057 238.933c56.564 34.133 133.12 58.514 177.493 24.381 44.373-33.158 100.45-72.655 100.45-72.655z" />
<glyph unicode="&#xe912;" glyph-name="write" horiz-adv-x="1032" d="M412.535-609.834h-228.28c-13.045 0-24.459 11.414-24.459 24.459s11.414 24.459 24.459 24.459h241.325c13.045 0 11.414-11.414 11.414-24.459s-24.459-24.459-24.459-24.459zM575.592-446.777h-391.338c-13.045 0-24.459 11.414-24.459 24.459s11.414 24.459 24.459 24.459h404.382c13.045 0 9.783-3.261 9.783-16.306s-17.936-30.981-22.828-32.611zM808.764-1024h-776.153c-17.936 0-32.611 14.675-32.611 32.611v958.777c0 17.936 14.675 32.611 32.611 32.611h776.153c17.936 0 32.611-14.675 32.611-32.611v-50.548c0-9.783-6.522-16.306-16.306-16.306s-16.306 6.522-16.306 16.306v50.548h-776.153v-958.777h776.153v427.21c0 9.783 6.522 16.306 16.306 16.306s16.306-6.522 16.306-16.306v-425.58c0-19.567-14.675-34.242-32.611-34.242zM357.096-800.611c-4.892 0-8.153 1.631-11.414 4.892-4.892 3.261-6.522 9.783-4.892 16.306l42.395 176.102c0 3.261 1.631 4.892 4.892 8.153l482.65 484.28c4.892 4.892 9.783 4.892 16.306 4.892 1.631 0 52.178-14.675 101.096-68.484 50.548-55.439 44.025-88.051 42.395-94.573 0-3.261-1.631-4.892-4.892-6.522l-481.019-469.605c-1.631-1.631-4.892-3.261-6.522-3.261l-176.102-52.178c-1.631 0-3.261 0-4.892 0zM414.166-616.357l-26.089-109.248 27.72-24.459 109.248 32.611 474.497 461.452c0 8.153-4.892 27.72-34.242 60.331-30.981 34.242-63.592 48.917-78.268 55.439l-472.866-476.127zM978.344-317.962c-4.892 0-8.153 1.631-11.414 4.892l-136.968 136.968c-6.522 6.522-6.522 16.306 0 22.828s16.306 6.522 22.828 0l136.968-136.968c6.522-6.522 6.522-16.306 0-22.828-3.261-3.261-8.153-4.892-11.414-4.892zM533.197-748.433c-3.261 0-8.153 1.631-11.414 4.892l-133.707 123.924c-6.522 6.522-6.522 16.306 0 22.828s16.306 6.522 22.828 0l133.707-125.554c6.522-6.522 6.522-16.306 0-22.828-3.261-1.631-6.522-3.261-11.414-3.261zM673.427-283.72h-489.172c-13.045 0-24.459 11.414-24.459 24.459s11.414 24.459 24.459 24.459h489.172c13.045 0 24.459-11.414 24.459-24.459s-11.414-24.459-24.459-24.459z" />
</font>
</defs>
</svg>
